<svg width="24" height="24" viewBox="0 0 24 24" fill="none" xmlns="http://www.w3.org/2000/svg">
    <path fill-rule="evenodd" clip-rule="evenodd"
        d="M18 3L6 3C4.34319 3 3 4.34296 3 6L3 18C3 19.6567 4.34314 21 6 21H18C19.6569 21 21 19.6567 21 18V6C21 4.34296 19.6569 3 18 3ZM6 5L18 5C18.5523 5 19 5.44753 19 6V12H15.874C15.4177 12 15.0193 12.3087 14.9055 12.7506C14.5724 14.0447 13.3965 15 12 15C10.6035 15 9.42754 14.0447 9.09445 12.7506C8.98072 12.3087 8.5823 12 8.12601 12H5L5 6C5 5.44754 5.44775 5 6 5Z"
        fill="black" />
</svg>