<svg width="18" height="16" viewBox="0 0 18 16" fill="none" xmlns="http://www.w3.org/2000/svg">
<mask id="path-1-inside-1_91250_22849" fill="white">
<path d="M2 8C2 6.14916 2.64175 4.35557 3.81592 2.92485C4.99008 1.49413 6.624 0.514799 8.43928 0.153718C10.2546 -0.207364 12.1389 0.0721488 13.7712 0.94463C15.4035 1.81711 16.6827 3.22858 17.391 4.93853C18.0993 6.64849 18.1928 8.55113 17.6555 10.3223C17.1183 12.0934 15.9835 13.6235 14.4446 14.6518C12.9056 15.68 11.0578 16.1429 9.21586 15.9615C7.37394 15.7801 5.65189 14.9656 4.34315 13.6569L5.76867 12.2313C6.74761 13.2103 8.0357 13.8195 9.41347 13.9552C10.7912 14.0909 12.1734 13.7447 13.3245 12.9755C14.4756 12.2064 15.3245 11.0619 15.7263 9.73706C16.1282 8.41225 16.0583 6.98907 15.5285 5.71002C14.9987 4.43098 14.0418 3.3752 12.8208 2.72258C11.5999 2.06997 10.1904 1.86089 8.83258 2.13098C7.47475 2.40107 6.25258 3.13361 5.37431 4.20379C4.49603 5.27397 4.016 6.61557 4.016 8L2 8Z"/>
</mask>
<path d="M2 8C2 6.14916 2.64175 4.35557 3.81592 2.92485C4.99008 1.49413 6.624 0.514799 8.43928 0.153718C10.2546 -0.207364 12.1389 0.0721488 13.7712 0.94463C15.4035 1.81711 16.6827 3.22858 17.391 4.93853C18.0993 6.64849 18.1928 8.55113 17.6555 10.3223C17.1183 12.0934 15.9835 13.6235 14.4446 14.6518C12.9056 15.68 11.0578 16.1429 9.21586 15.9615C7.37394 15.7801 5.65189 14.9656 4.34315 13.6569L5.76867 12.2313C6.74761 13.2103 8.0357 13.8195 9.41347 13.9552C10.7912 14.0909 12.1734 13.7447 13.3245 12.9755C14.4756 12.2064 15.3245 11.0619 15.7263 9.73706C16.1282 8.41225 16.0583 6.98907 15.5285 5.71002C14.9987 4.43098 14.0418 3.3752 12.8208 2.72258C11.5999 2.06997 10.1904 1.86089 8.83258 2.13098C7.47475 2.40107 6.25258 3.13361 5.37431 4.20379C4.49603 5.27397 4.016 6.61557 4.016 8L2 8Z" stroke="black" stroke-width="4" mask="url(#path-1-inside-1_91250_22849)"/>
<path d="M6 8L3 12L0 8L6 8Z" fill="black"/>
<path d="M9.3047 5.03647L12.5019 7.16796C13.0957 7.56378 13.0957 8.43623 12.5019 8.83206L9.3047 10.9635C8.64014 11.4066 7.75 10.9302 7.75 10.1315L7.75 5.86852C7.75 5.06982 8.64015 4.59343 9.3047 5.03647Z" fill="black"/>
</svg>
